<?xml version="1.0" encoding="utf-8"?>
<!-- Generator: Adobe Illustrator 16.0.0, SVG Export Plug-In . SVG Version: 6.00 Build 0)  -->
<!DOCTYPE svg PUBLIC "-//W3C//DTD SVG 1.1//EN" "http://www.w3.org/Graphics/SVG/1.1/DTD/svg11.dtd">
<svg version="1.1" id="Layer_1" xmlns="http://www.w3.org/2000/svg" xmlns:xlink="http://www.w3.org/1999/xlink" x="0px" y="0px"
	 width="100px" height="100px" viewBox="247.64 370.945 100 100" enable-background="new 247.64 370.945 100 100"
	 xml:space="preserve">
<g>
	<path fill="#FFFFFF" d="M267.216,431.98c2.684,0,5.025,0,7.789,0c0,6.639,0,13.291,0,20.104c20.744,0,41.066,0,61.606,0
		c0-15.385,0-30.632,0-46.227c-11.857,0-23.695,0-35.72,0c0-2.659,0-4.976,0-7.491c0.87-0.086,1.665-0.236,2.453-0.236
		c10.862-0.012,21.72-0.043,32.583,0.006c5.744,0.025,8.708,3.056,8.72,8.888c0.031,14.688,0.031,29.378,0,44.067
		c-0.012,5.788-3.024,8.781-8.813,8.788c-19.962,0.024-39.929,0.024-59.891,0c-5.621-0.007-8.659-2.994-8.714-8.583
		C267.167,444.905,267.216,438.52,267.216,431.98z"/>
	<path fill="#FFFFFF" d="M276.47,422.658c-3.677,0-6.857,0-10.378,0c0-5.019,0-9.925,0-15.279c-5.317,0-10.311,0-15.484,0
		c0-3.603,0-6.757,0-10.329c5.012,0,10.005,0,15.291,0c0-5.322,0-10.242,0-15.372c3.547,0,6.795,0,10.435,0
		c0,4.988,0,9.987,0,15.255c5.304,0,10.223,0,15.36,0c0,3.508,0,6.75,0,10.31c-5.057,0-9.98,0-15.217,0
		C276.47,412.453,276.47,417.359,276.47,422.658z"/>
	<path fill="#FFFFFF" d="M282.695,444.186c0-4.846-0.044-9.479,0.049-14.105c0.013-0.708,0.534-1.528,1.05-2.093
		c2.081-2.292,4.242-4.51,6.478-6.863c4.658,3.496,9.093,6.702,13.384,10.099c1.596,1.268,2.951,1.658,4.69,0.459
		c0.757-0.521,1.731-0.738,2.471-1.278c1.963-1.442,3.671-1.149,5.621,0.186c2.808,1.919,5.819,3.553,8.739,5.304
		c4.384,2.627,4.384,2.627,3.714,8.285C313.661,444.186,298.407,444.186,282.695,444.186z"/>
	<path fill="#FFFFFF" d="M323.257,425.068c-3.136-0.037-5.701-2.566-5.745-5.665c-0.043-3.193,2.672-5.888,5.9-5.845
		c3.111,0.044,5.696,2.603,5.739,5.689C329.195,422.465,326.524,425.104,323.257,425.068z"/>
</g>
</svg>
